Coordinates
version=1
nRows=25
nColumns=33
inDegrees=yes

Units are S.I. units (second, meters, Newtons, ...)
Angles are in degrees.

endheader
time	ground_thorax_rot_x	ground_thorax_rot_y	ground_thorax_rot_z	ground_thorax_tx	ground_thorax_ty	ground_thorax_tz	clav_prot_r	clav_elev_r	scapula_abduction_r	scapula_elevation_r	scapula_upward_rot_r	scapula_winging_r	shoulder_elv_r	plane_of_elev_r	axial_rot_r	elbow_flexion_r	pro_sup_r	wrist_flex_r	wrist_dev_r	clav_prot_l	clav_elev_l	scapula_abduction_l	scapula_elevation_l	scapula_upward_rot_l	scapula_winging_l	shoulder_elv_l	plane_of_elev_l	axial_rot_l	elbow_flexion_l	pro_sup_l	wrist_flex_l	wrist_dev_l	
7.0200	38.337171	15.238911	17.822355	-98.706994	767.411693	4.179126	18.476878	36.275767	43.530479	41.419177	-39.733819	1360.458563	-2992.558091	144.042925	180.000000	2166.100508	52.340178	20.451388	13.509305	-4.987174	-45.000000	-45.000000	45.000000	15.208538	-2768.940921	-1723.587875	12.388276	180.000000	1087.367656	227.060730	7.143387	-13.418621	
7.0300	38.024013	14.921675	17.699790	-96.298740	766.799356	4.309663	18.410723	36.014573	43.739031	40.885418	-39.138156	1360.298935	-2992.732134	144.120798	180.000000	2166.023670	52.741231	20.453496	13.451309	-4.903193	-45.000000	-45.000000	45.000000	14.652241	-2769.463583	-1723.786776	12.422852	180.000000	1087.161569	227.589071	6.986413	-13.412260	
7.0400	37.711544	14.582605	17.558762	-94.010353	766.286013	4.470406	18.353750	35.759772	43.946541	40.360997	-38.520026	1360.133991	-2992.908989	144.198762	180.000000	2165.960704	53.000277	20.447732	13.408829	-4.821351	-45.000000	-45.000000	45.000000	14.113942	-2769.999909	-1723.963684	12.465031	180.000000	1086.945517	228.101359	6.836908	-13.411805	
7.0500	37.397584	14.260410	17.443163	-91.841899	765.866819	4.660190	18.250035	35.512114	44.129006	39.865028	-37.948658	1359.978370	-2993.065204	144.257212	180.000000	2165.914455	53.102740	20.433598	13.385957	-4.703262	-45.000000	-45.000000	45.000000	13.521328	-2770.543892	-1724.128812	12.519290	180.000000	1086.724136	228.579615	6.694542	-13.413385	
7.0600	37.094933	13.921182	17.305521	-89.789810	765.537720	4.877543	18.169751	35.269389	44.316807	39.388653	-37.349580	1359.820886	-2993.227249	144.323920	180.000000	2165.872888	53.069020	20.415954	13.380989	-4.595770	-45.000000	-45.000000	45.000000	12.962706	-2771.095742	-1724.275750	12.569437	180.000000	1086.497161	229.019696	6.561529	-13.417762	
7.0700	36.803545	13.581169	17.165340	-87.848855	765.295165	5.120345	18.080767	35.041245	44.498984	38.942964	-36.758160	1359.677200	-2993.380441	144.393549	180.000000	2165.844798	52.924512	20.399772	13.391074	-4.492289	-45.000000	-45.000000	45.000000	12.433722	-2771.637145	-1724.402458	12.620008	180.000000	1086.275057	229.416754	6.436075	-13.418329	
7.0800	36.528532	13.221451	16.992497	-86.012710	765.135056	5.386107	18.021770	34.832174	44.680111	38.519485	-36.126792	1359.549891	-2993.532738	144.478617	180.000000	2165.825028	52.710228	20.390663	13.411617	-4.425804	-45.000000	-45.000000	45.000000	12.002725	-2772.162399	-1724.502028	12.663548	180.000000	1086.062730	229.773316	6.317795	-13.412712	
7.0900	36.265857	12.883038	16.830773	-84.276452	765.052246	5.671242	17.946869	34.643209	44.827369	38.138449	-35.525809	1359.455121	-2993.664977	144.550667	180.000000	2165.817306	52.454539	20.389243	13.438242	-4.360428	-45.000000	-45.000000	45.000000	11.596272	-2772.665367	-1724.584197	12.707287	180.000000	1085.863853	230.080012	6.207571	-13.400222	
7.1000	36.011824	12.578277	16.682255	-82.636860	765.039970	5.971191	17.861658	34.470887	44.928392	37.798536	-34.955906	1359.401828	-2993.775384	144.612748	180.000000	2165.816987	52.182650	20.397773	13.468171	-4.291900	-45.000000	-45.000000	45.000000	11.202586	-2773.153000	-1724.654008	12.748820	180.000000	1085.676110	230.325257	6.105227	-13.381769	
7.1100	35.766791	12.327603	16.576286	-81.093377	765.090123	6.279931	17.725783	34.315964	44.982299	37.521524	-34.450283	1359.422320	-2993.861866	144.695987	180.000000	2165.838027	51.920121	20.424032	13.496304	-4.205762	-45.000000	-45.000000	45.000000	10.787603	-2773.618048	-1724.712846	12.785160	180.000000	1085.496974	230.496315	6.008519	-13.355564	
7.1200	35.531632	12.107987	16.482748	-79.646932	765.193769	6.590832	17.596862	34.171612	45.000000	37.285115	-33.982246	1359.475665	-2993.935278	144.770615	180.000000	2165.873353	51.685143	20.464258	13.519623	-4.117395	-45.000000	-45.000000	45.000000	10.383267	-2774.068422	-1724.759583	12.818054	180.000000	1085.328468	230.585207	5.921072	-13.326419	
7.1300	35.313912	11.903385	16.390565	-78.299070	765.342033	6.897165	17.477345	34.045020	45.000000	37.081333	-33.544611	1359.541875	-2993.995251	144.832490	180.000000	2165.926151	51.490989	20.516177	13.536089	-4.035582	-45.000000	-45.000000	45.000000	10.013585	-2774.495563	-1724.796940	12.850440	180.000000	1085.180655	230.587532	5.846313	-13.295812	
7.1400	35.116786	11.683538	16.265173	-77.050339	765.526742	7.193348	17.418873	33.933695	45.000000	36.884280	-33.108651	1359.575500	-2994.053609	144.846954	180.000000	2165.984240	51.344124	20.572081	13.546129	-3.982056	-45.000000	-45.000000	45.000000	9.729937	-2774.898455	-1724.826589	12.886208	180.000000	1085.058899	230.504746	5.788035	-13.267914	
7.1500	34.938579	11.466450	16.137262	-75.899592	765.740872	7.475407	17.361380	33.845557	45.000000	36.709171	-32.706370	1359.613035	-2994.101096	144.853017	180.000000	2166.060960	51.246675	20.636236	13.549370	-3.945930	-45.000000	-45.000000	45.000000	9.511899	-2775.262465	-1724.851085	12.924275	180.000000	1084.965691	230.342032	5.741974	-13.237487	
7.1600	34.777954	11.240717	15.995568	-74.843736	765.978537	7.741528	17.344908	33.772757	45.000000	36.537679	-32.327252	1359.622889	-2994.142598	144.812014	180.000000	2166.137507	51.197183	20.699484	13.548043	-3.928328	-45.000000	-45.000000	45.000000	9.358877	-2775.595946	-1724.872883	12.967387	180.000000	1084.899748	230.108763	5.710774	-13.209388	
7.1700	34.633778	11.022629	15.865026	-73.878292	766.234700	7.991605	17.329250	33.716094	45.000000	36.387014	-31.981432	1359.643892	-2994.175133	144.771116	180.000000	2166.217884	51.188952	20.766083	13.543269	-3.921803	-45.000000	-45.000000	45.000000	9.247511	-2775.895557	-1724.892284	13.004680	180.000000	1084.856257	229.819358	5.689230	-13.179656	
7.1800	34.508459	10.817608	15.754558	-72.998383	766.504734	8.226663	17.320497	33.666547	45.000000	36.258046	-31.673143	1359.676549	-2994.200821	144.722248	180.000000	2166.283901	51.217250	20.830880	13.538176	-3.920956	-45.000000	-45.000000	45.000000	9.160215	-2776.165625	-1724.910546	13.033093	180.000000	1084.828256	229.490251	5.675724	-13.150181	
7.1900	34.400651	10.644072	15.681183	-72.199680	766.784089	8.447945	17.288123	33.623381	45.000000	36.163524	-31.409108	1359.744996	-2994.219022	144.715126	180.000000	2166.355035	51.272218	20.901332	13.529973	-3.918896	-45.000000	-45.000000	45.000000	9.075582	-2776.410036	-1724.928237	13.045709	180.000000	1084.812882	229.139972	5.665232	-13.116712	
7.2000	34.313969	10.490909	15.625799	-71.478890	767.068114	8.656317	17.262208	33.583726	45.000000	36.085993	-31.178046	1359.806879	-2994.232819	144.701277	180.000000	2166.414609	51.350775	20.966761	13.520627	-3.916236	-45.000000	-45.000000	45.000000	8.998134	-2776.633381	-1724.950657	13.052519	180.000000	1084.805590	228.780326	5.661122	-13.086952	
7.2100	34.241296	10.351887	15.579422	-70.833923	767.352149	8.851749	17.239539	33.554362	45.000000	36.016502	-30.968244	1359.858889	-2994.242109	144.690457	180.000000	2166.473171	51.446757	21.029694	13.509400	-3.915782	-45.000000	-45.000000	45.000000	8.935896	-2776.837757	-1724.972752	13.059889	180.000000	1084.808213	228.421091	5.661094	-13.058081	
7.2200	34.187498	10.224035	15.536175	-70.263168	767.631732	9.033320	17.218924	33.530984	45.000000	35.958695	-30.776050	1359.891514	-2994.255177	144.666297	180.000000	2166.523264	51.558940	21.085672	13.497874	-3.917910	-45.000000	-45.000000	45.000000	8.892578	-2777.018038	-1725.002253	13.069012	180.000000	1084.809796	228.065608	5.665246	-13.036327	
7.2300	34.140791	10.106444	15.499486	-69.765027	767.902726	9.199387	17.198901	33.516391	45.000000	35.901823	-30.597833	1359.910550	-2994.270374	144.651241	180.000000	2166.582907	51.681806	21.142121	13.482329	-3.923682	-45.000000	-45.000000	45.000000	8.865197	-2777.179433	-1725.026424	13.080781	180.000000	1084.813764	227.717608	5.668347	-13.014320	
7.2400	34.107431	9.996669	15.468897	-69.337111	768.161640	9.348213	17.174969	33.506808	45.000000	35.856331	-30.437180	1359.919050	-2994.289711	144.630619	180.000000	2166.638893	51.815261	21.193968	13.465469	-3.930768	-45.000000	-45.000000	45.000000	8.847982	-2777.318260	-1725.051685	13.092473	180.000000	1084.814675	227.377215	5.671991	-12.997484	
7.2500	34.072732	9.893857	15.451035	-68.976513	768.405532	9.478331	17.156114	33.508004	45.000000	35.804921	-30.291820	1359.924222	-2994.304694	144.619056	180.000000	2166.696852	51.953273	21.246792	13.445381	-3.940598	-45.000000	-45.000000	45.000000	8.835532	-2777.443465	-1725.057281	13.106127	180.000000	1084.821244	227.048902	5.670642	-12.975071	
7.2600	34.050739	9.801197	15.437763	-68.679689	768.632343	9.589089	17.134532	33.509705	45.000000	35.769190	-30.166713	1359.927256	-2994.321784	144.604887	180.000000	2166.751765	52.093605	21.295425	13.424268	-3.949372	-45.000000	-45.000000	45.000000	8.825639	-2777.552119	-1725.063619	13.119334	180.000000	1084.827048	226.733480	5.669762	-12.956917	
